# xmcd
#
# Track frame offsets: 
#        150
#        16323
#        28341
#        45420
#        63046
#        86115
#        105190
#        122575
#        140292
#        155150
#        178666
#
# Disc length: 2626 seconds
#
# Revision: 0
# Processed by: cddbd v1.5.2PL0 Copyright (c) Steve Scherf et al.
# Submitted via: ExactAudioCopy v1.0b3
#
DISCID=860a400b
DTITLE=Steve Harper And The Curbfeelers - Tales From The Typewriter
DYEAR=2003
DGENRE=Country
TTITLE0=Barstool Blues
TTITLE1=New Years Song
TTITLE2=Fallen Angel
TTITLE3=The Confidence Man
TTITLE4=You Got Me So Stoned Today
TTITLE5=You'll Feel Free
TTITLE6=Is This My Guru?
TTITLE7=Come On Home
TTITLE8=Invitation To A Shower
TTITLE9=The Way I Choose To Play Your Game
TTITLE10=The Unemployment No-Compensation Blues
EXTD=
EXTT0=
EXTT1=
EXTT2=
EXTT3=
EXTT4=
EXTT5=
EXTT6=
EXTT7=
EXTT8=
EXTT9=
EXTT10=
PLAYORDER=
